nColumns=19
nRows=99
DataType=double
version=3
OpenSimVersion=4.1
endheader
time	ground_force_1_vx	ground_force_1_vy	ground_force_1_vz	ground_force_1_px	ground_force_1_py	ground_force_1_pz	ground_force_1_mx	ground_force_1_my	ground_force_1_mz	ground_force_2_vx	ground_force_2_vy	ground_force_2_vz	ground_force_2_px	ground_force_2_py	ground_force_2_pz	ground_force_2_mx	ground_force_2_my	ground_force_2_mz
2.75	-152.482	1449.78	-17.0419	0.80887	0	-0.28141	-0	2.20454	-0	0	0	0	-0.00277578	0	-0.000675086	0	0	0
2.76	-126.297	1442.1	-56.941	0.781525	0	-0.279421	0	-0.299026	0	0	0	0	-0.00277578	0	-0.000675063	0	0	0
2.77	-101.875	1413.12	-78.9611	0.749457	0	-0.278136	0	-2.96086	0	0	0	0	-0.00277577	0	-0.000675039	0	0	0
2.78	-69.5789	1385.12	-56.9962	0.708751	0	-0.277006	0	-4.39167	0	0	0	0	-0.00277577	0	-0.000675014	0	0	0
2.79	-15.2733	1346.95	-32.9019	0.660117	0	-0.276181	0	-4.32985	0	0	0	0	-0.00277577	0	-0.000674988	0	0	0
2.8	58.2397	1286.01	-20.2411	0.608143	0	-0.275986	0	-3.54556	0	0	0	0	-0.00277577	0	-0.000674961	0	0	0
2.81	132.741	1200.93	-4.32809	0.558023	0	-0.276379	0	-3.01517	0	0	0	0	-0.00277577	0	-0.000674934	0	0	0
2.82	199.156	1088.27	20.1153	0.512468	0	-0.276985	0	-3.18547	0	0	0	0	-0.00277576	0	-0.000674905	0	0	0
2.83	249.481	938.38	47.4984	0.471287	0	-0.277406	0	-3.76449	0	0	0	0	-0.00277576	0	-0.000674875	0	0	0
2.84	264.534	746.634	67.3171	0.432105	0	-0.277351	0	-4.09371	0	0	0	0	-0.00277576	0	-0.000674844	0	0	0
2.85	230.098	524.271	68.7018	0.389914	0	-0.276497	0	-3.67716	0	0	0	0	-0.00277576	0	-0.000674813	0	0	0
2.86	166.356	310.911	50.6826	0.333491	0	-0.273786	0	-2.28773	0	0	0	0	-0.00277575	0	-0.00067478	0	0	0
2.87	101.799	154.417	26.412	0.228581	0	-0.263961	-0	0.185407	-0	0	0	0	-0.00277575	0	-0.000674746	0	0	0
2.88	49.1158	67.4135	9.36259	-0.171918	0	-0.186937	-0	3.2825	-0	0	0	0	-0.00277575	0	-0.000674712	0	0	0
2.89	14.5836	27.805	1.02068	-0.00277548	0	-0.000676818	0	0	0	0	0	0	-0.00277574	0	-0.000674676	0	0	0
2.9	-0.868759	12.708	-2.28382	-0.00277548	0	-0.000676776	0	0	0	0	0	0	-0.00277574	0	-0.00067464	0	0	0
2.91	0	0	0	-0.00277548	0	-0.000676732	0	0	0	0	0	0	-0.00277574	0	-0.000674603	0	0	0
2.92	0	0	0	-0.00277547	0	-0.000676688	0	0	0	0	0	0	-0.00277573	0	-0.000674564	0	0	0
2.93	0	0	0	-0.00277547	0	-0.000676642	0	0	0	0	0	0	-0.00277573	0	-0.000674525	0	0	0
2.94	0	0	0	-0.00277547	0	-0.000676596	0	0	0	-1.45953	11.6909	-4.46526	-0.00277573	0	-0.000674485	0	0	0
2.95	0	0	0	-0.00277546	0	-0.000676548	0	0	0	-2.0285	31.4622	-2.88124	1.02627	0	-0.32084	-0	3.87417	-0
2.96	0	0	0	-0.00277546	0	-0.0006765	0	0	0	-5.01114	112.24	-7.1362	0.917428	0	-0.349131	-0	1.842	-0
2.97	0	0	0	-0.00277546	0	-0.00067645	0	0	0	-10.6435	344.43	-15.5187	0.948364	0	-0.331965	0	-1.21378	0
2.98	0	0	0	-0.00277546	0	-0.000676399	0	0	0	-30.6199	745.963	-4.29287	0.950442	0	-0.32693	0	-4.46994	0
2.99	0	0	0	-0.00277545	0	-0.000676348	0	0	0	-79.1915	1087.11	27.6393	0.947314	0	-0.32468	0	-7.42288	0
3	0	0	0	-0.00277545	0	-0.000676295	0	0	0	-139.093	1154.18	11.4526	0.938456	0	-0.324879	0	-9.23712	0
3.01	0	0	0	-0.00277545	0	-0.000676241	0	0	0	-182.268	1084.29	-68.0571	0.919365	0	-0.327617	0	-9.33289	0
3.02	0	0	0	-0.00277544	0	-0.000676186	0	0	0	-197.445	1076.79	-74.7408	0.885759	0	-0.331714	0	-8.35349	0
3.03	0	0	0	-0.00277544	0	-0.000676131	0	0	0	-182.173	1159.71	35.6602	0.842042	0	-0.334983	0	-7.58608	0
3.04	0	0	0	-0.00277543	0	-0.000676074	0	0	0	-140.575	1260.19	106.105	0.799849	0	-0.336829	0	-7.29544	0
3.05	0	0	0	-0.00277543	0	-0.000676017	0	0	0	-92.6525	1318.34	62.7651	0.764603	0	-0.338136	0	-6.52085	0
3.06	0	0	0	-0.00277543	0	-0.000675958	0	0	0	-57.2675	1335.02	17.4431	0.733788	0	-0.339234	0	-4.73042	0
3.07	0	0	0	-0.00277542	0	-0.000675899	0	0	0	-29.8789	1331.74	37.4942	0.703101	0	-0.339959	0	-2.77189	0
3.08	0	0	0	-0.00277542	0	-0.000675838	0	0	0	1.40081	1309.71	58.6277	0.669257	0	-0.340295	0	-1.87745	0
3.09	0	0	0	-0.00277542	0	-0.000675777	0	0	0	39.3519	1259.82	42.5547	0.630543	0	-0.34018	0	-2.37926	0
3.1	0	0	0	-0.00277541	0	-0.000675715	0	0	0	87.8058	1180.68	18.8047	0.586993	0	-0.339305	0	-3.63113	0
3.11	0	0	0	-0.00277541	0	-0.000675651	0	0	0	149.805	1069.65	0.742567	0.540376	0	-0.337517	0	-4.67837	0
3.12	0	0	0	-0.0027754	0	-0.000675587	0	0	0	208.041	925.698	-17.8011	0.493431	0	-0.335214	0	-4.69383	0
3.13	0	0	0	-0.0027754	0	-0.000675522	0	0	0	231.12	751.733	-32.9488	0.447878	0	-0.333236	0	-3.04802	0
3.14	0	0	0	-0.00277539	0	-0.000675457	0	0	0	208.863	553.038	-41.8135	0.401722	0	-0.332523	-0	0.569227	-0
3.15	0	0	0	-0.00277539	0	-0.00067539	0	0	0	159.063	353.052	-46.2134	0.345908	0	-0.33385	-0	5.73917	-0
3.16	0	0	0	-0.00277539	0	-0.000675322	0	0	0	105.84	190.592	-40.639	0.254385	0	-0.337464	-0	10.8232	-0
3.17	0	0	0	-0.00277538	0	-0.000675254	0	0	0	58.3015	88.347	-24.6421	0.0263554	0	-0.337563	-0	13.1155	-0
3.18	0	0	0	-0.00277538	0	-0.000675185	0	0	0	20.8093	38.0406	-8.71482	-2.12465	0	0.445502	-0	10.5566	-0
3.19	0	0	0	-0.00277537	0	-0.000675115	0	0	0	-0.397129	16.5802	-1.02449	-0.00277562	0	-0.00067321	0	0	0
3.2	0	0	0	-0.00277537	0	-0.000675044	0	0	0	0	0	0	-0.00277561	0	-0.000673149	0	0	0
3.21	0	0	0	-0.00277536	0	-0.000674972	0	0	0	0	0	0	-0.00277561	0	-0.000673087	0	0	0
3.22	0	0	0	-0.00277536	0	-0.0006749	0	0	0	0	0	0	-0.0027756	0	-0.000673025	0	0	0
3.23	0	0	0	-0.00277535	0	-0.000674826	0	0	0	0	0	0	-0.0027756	0	-0.000672962	0	0	0
3.24	-2.87294	19.7255	-4.24043	-0.00277535	0	-0.000674753	0	0	0	0	0	0	-0.00277559	0	-0.000672898	0	0	0
3.25	1.07485	65.2749	-3.33591	5.08623	0	-1.2102	0	-1.69724	0	0	0	0	-0.00277559	0	-0.000672834	0	0	0
3.26	10.0201	228.482	-14.0781	0.948293	0	-0.27736	0	-1.22678	0	0	0	0	-0.00277558	0	-0.000672769	0	0	0
3.27	13.161	593.712	-30.6174	0.957104	0	-0.280159	-0	2.00836	-0	0	0	0	-0.00277558	0	-0.000672704	0	0	0
3.28	-29.6033	1038.49	-9.65693	0.958334	0	-0.28125	-0	5.71385	-0	0	0	0	-0.00277557	0	-0.000672637	0	0	0
3.29	-127.888	1251.07	56.6859	0.956448	0	-0.282175	-0	7.40442	-0	0	0	0	-0.00277556	0	-0.00067257	0	0	0
3.3	-223.836	1200.28	78.1071	0.948173	0	-0.283138	-0	6.47823	-0	0	0	0	-0.00277556	0	-0.000672503	0	0	0
3.31	-274.706	1158.49	4.53035	0.926801	0	-0.283543	-0	4.28038	-0	0	0	0	-0.00277555	0	-0.000672435	0	0	0
3.32	-267.911	1247.93	-59.5242	0.890737	0	-0.282452	-0	2.51806	-0	0	0	0	-0.00277555	0	-0.000672366	0	0	0
3.33	-225.917	1397.03	-43.3055	0.84986	0	-0.280205	-0	1.63759	-0	0	0	0	-0.00277554	0	-0.000672297	0	0	0
3.34	-175.107	1504.86	-17.4285	0.812809	0	-0.278202	-0	0.909356	-0	0	0	0	-0.00277554	0	-0.000672228	0	0	0
3.35	-126.181	1536.77	-32.6661	0.778386	0	-0.277096	0	-0.186568	0	0	0	0	-0.00277553	0	-0.000672157	0	0	0
3.36	-75.7074	1511.19	-48.9197	0.74132	0	-0.276669	0	-1.24412	0	0	0	0	-0.00277552	0	-0.000672087	0	0	0
3.37	-10.4016	1458.26	-38.9057	0.697864	0	-0.276568	0	-1.56931	0	0	0	0	-0.00277552	0	-0.000672015	0	0	0
3.38	71.6206	1389.67	-20.6733	0.648353	0	-0.276648	0	-1.09761	0	0	0	0	-0.00277551	0	-0.000671944	0	0	0
3.39	152.888	1299.59	-3.88417	0.596898	0	-0.27689	0	-0.522322	0	0	0	0	-0.00277551	0	-0.000671871	0	0	0
3.4	216.874	1175.86	13.5095	0.54811	0	-0.277216	0	-0.609316	0	0	0	0	-0.0027755	0	-0.000671798	0	0	0
3.41	259.145	1006.41	32.7249	0.504123	0	-0.277438	0	-1.4042	0	0	0	0	-0.00277549	0	-0.000671725	0	0	0
3.42	267.278	791.376	50.1414	0.464368	0	-0.277282	0	-2.06236	0	0	0	0	-0.00277549	0	-0.000671651	0	0	0
3.43	229.821	555.221	53.662	0.425981	0	-0.276335	0	-1.52447	0	0	0	0	-0.00277548	0	-0.000671577	0	0	0
3.44	163.085	339.279	35.717	0.38103	0	-0.273596	-0	0.483694	-0	0	0	0	-0.00277547	0	-0.000671503	0	0	0
3.45	99.2122	177.582	8.91732	0.299533	0	-0.264846	-0	3.05666	-0	0	0	0	-0.00277547	0	-0.000671428	0	0	0
3.46	51.2697	78.6856	-4.36323	-0.0598252	0	-0.208897	-0	4.7535	-0	0	0	0	-0.00277546	0	-0.000671352	0	0	0
3.47	17.611	31.886	-0.922319	1.0198	0	-0.468782	-0	4.67923	-0	0	0	0	-0.00277545	0	-0.000671276	0	0	0
3.48	-0.78388	13.605	2.57584	-0.00277522	0	-0.000672779	0	0	0	0	0	0	-0.00277545	0	-0.0006712	0	0	0
3.49	0	0	0	-0.00277522	0	-0.00067269	0	0	0	0	0	0	-0.00277544	0	-0.000671123	0	0	0
3.5	0	0	0	-0.00277521	0	-0.000672601	0	0	0	0	0	0	-0.00277543	0	-0.000671046	0	0	0
3.51	0	0	0	-0.0027752	0	-0.000672511	0	0	0	0	0	0	-0.00277543	0	-0.000670969	0	0	0
3.52	0	0	0	-0.0027752	0	-0.000672421	0	0	0	-3.09568	10.0462	-2.0293	-0.00277542	0	-0.000670891	0	0	0
3.53	0	0	0	-0.00277519	0	-0.00067233	0	0	0	-4.34229	14.3547	-4.09169	-0.00277541	0	-0.000670813	0	0	0
3.54	0	0	0	-0.00277519	0	-0.000672239	0	0	0	-2.01817	45.3682	-3.96876	1.09064	0	-0.288054	-0	1.55466	-0
3.55	0	0	0	-0.00277518	0	-0.000672148	0	0	0	2.58195	174.519	-13.1833	0.978759	0	-0.327444	-0	0.042894	-0
3.56	0	0	0	-0.00277518	0	-0.000672056	0	0	0	0.372004	493.095	-28.133	0.988565	0	-0.318804	0	-1.22128	0
3.57	0	0	0	-0.00277517	0	-0.000671964	0	0	0	-37.9154	934.312	-23.4362	0.988497	0	-0.315488	0	-2.91596	0
3.58	0	0	0	-0.00277516	0	-0.000671872	0	0	0	-117.827	1197.58	-8.31461	0.984967	0	-0.314249	0	-5.2514	0
3.59	0	0	0	-0.00277516	0	-0.000671779	0	0	0	-185.427	1165.42	-46.1274	0.975679	0	-0.315054	0	-7.16011	0
3.6	0	0	0	-0.00277515	0	-0.000671686	0	0	0	-212.778	1070.47	-114.904	0.954345	0	-0.317825	0	-7.49527	0
3.61	0	0	0	-0.00277515	0	-0.000671593	0	0	0	-211.454	1086.92	-83.2072	0.916423	0	-0.321204	0	-6.55504	0
3.62	0	0	0	-0.00277514	0	-0.000671499	0	0	0	-181.704	1192.4	31.0396	0.869909	0	-0.323564	0	-5.63962	0
3.63	0	0	0	-0.00277513	0	-0.000671406	0	0	0	-127.462	1298.72	64.5906	0.828406	0	-0.325152	0	-5.21143	0
3.64	0	0	0	-0.00277513	0	-0.000671312	0	0	0	-74.8782	1357.76	9.25969	0.795308	0	-0.326754	0	-4.45292	0
3.65	0	0	0	-0.00277512	0	-0.000671218	0	0	0	-40.6431	1378.12	-10.4606	0.766576	0	-0.328306	0	-2.7326	0
3.66	0	0	0	-0.00277512	0	-0.000671123	0	0	0	-10.3451	1380.53	20.6047	0.737755	0	-0.329505	0	-0.6621	0
3.67	0	0	0	-0.00277511	0	-0.000671029	0	0	0	25.6953	1364.88	28.2401	0.706128	0	-0.330211	-0	0.46855	-0
3.68	0	0	0	-0.0027751	0	-0.000670934	0	0	0	63.7535	1325.03	7.69975	0.670725	0	-0.330209	0	-0.134537	0
3.69	0	0	0	-0.0027751	0	-0.000670839	0	0	0	102.016	1260.09	-8.79227	0.631582	0	-0.329273	0	-2.07077	0
3.7	0	0	0	-0.00277509	0	-0.000670744	0	0	0	143.728	1160.48	-20.8247	0.588911	0	-0.327593	0	-3.8205	0
3.71	0	0	0	-0.00277508	0	-0.000670649	0	0	0	188.484	1012.06	-33.977	0.542941	0	-0.325821	0	-3.67423	0
3.72	0	0	0	-0.00277508	0	-0.000670554	0	0	0	218.081	818.249	-45.7982	0.494401	0	-0.324735	0	-1.13905	0
3.73	0	0	0	-0.00277507	0	-0.000670459	0	0	0	201.761	606.237	-55.7935	0.444407	0	-0.324931	-0	2.47572	-0
